<svg width="0" height="0" style="display: none" xmlns="http://www.w3.org/2000/svg">
  <symbol id="icon-github" viewBox="0 0 20 20">
    <g transform="translate(-140.000000, -7559.000000)">
      <g transform="translate(56.000000, 160.000000)">
        <path
          d="M94,7399 C99.523,7399 104,7403.59 104,7409.253 C104,7413.782 101.138,7417.624 97.167,7418.981 C96.66,7419.082 96.48,7418.762 96.48,7418.489 C96.48,7418.151 96.492,7417.047 96.492,7415.675 C96.492,7414.719 96.172,7414.095 95.813,7413.777 C98.04,7413.523 100.38,7412.656 100.38,7408.718 C100.38,7407.598 99.992,7406.684 99.35,7405.966 C99.454,7405.707 99.797,7404.664 99.252,7403.252 C99.252,7403.252 98.414,7402.977 96.505,7404.303 C95.706,7404.076 94.85,7403.962 94,7403.958 C93.15,7403.962 92.295,7404.076 91.497,7404.303 C89.586,7402.977 88.746,7403.252 88.746,7403.252 C88.203,7404.664 88.546,7405.707 88.649,7405.966 C88.01,7406.684 87.619,7407.598 87.619,7408.718 C87.619,7412.646 89.954,7413.526 92.175,7413.785 C91.889,7414.041 91.63,7414.493 91.54,7415.156 C90.97,7415.418 89.522,7415.871 88.63,7414.304 C88.63,7414.304 88.101,7413.319 87.097,7413.247 C87.097,7413.247 86.122,7413.234 87.029,7413.87 C87.029,7413.87 87.684,7414.185 88.139,7415.37 C88.139,7415.37 88.726,7417.2 91.508,7416.58 C91.513,7417.437 91.522,7418.245 91.522,7418.489 C91.522,7418.76 91.338,7419.077 90.839,7418.982 C86.865,7417.627 84,7413.783 84,7409.253 C84,7403.59 88.478,7399 94,7399"
        ></path>
      </g>
    </g>
  </symbol>

  <symbol id="icon-google" xml:space="preserve" fill="none" viewBox="0 0 64 64">
    <path
      fill="#FF7976"
      d="M32.709.835c-9.453 0-17.881 4.146-23.591 10.719a31.082 31.082 0 0 0-4.417 6.641l10.501 8.021a18.416 18.416 0 0 1 6.64-9.104 18.38 18.38 0 0 1 10.866-3.527c4.398 0 8.37 1.559 11.491 4.109l9.079-9.066C47.747 3.81 40.654.835 32.709.835z"
    />
    <path
      fill="#E3443A"
      d="m4.702 18.194 10.501 8.021a18.416 18.416 0 0 1 6.64-9.104 18.38 18.38 0 0 1 10.866-3.527c4.398 0 8.37 1.559 11.491 4.109l9.079-9.066C47.746 3.811 40.654.835 32.709.835"
    />
    <path
      fill="#F4D72C"
      d="M14.268 32c0-.287.021-.57.034-.854.082-1.716.387-3.37.901-4.931L4.702 18.194c-1.931 3.917-3.051 8.303-3.177 12.952-.008.285-.025.568-.025.854 0 .287.017.571.024.856.126 4.643 1.246 9.027 3.172 12.94l10.498-8.036a18.523 18.523 0 0 1-.892-4.905c-.013-.284-.034-.567-.034-.855z"
    />
    <path
      fill="#F7B92B"
      d="m4.697 45.796 10.498-8.036a18.523 18.523 0 0 1-.892-4.905c-.013-.285-.034-.568-.034-.856 0-.287.021-.57.034-.854.082-1.716.387-3.37.901-4.931l-10.502-8.02"
    />
    <path
      fill="#59C96E"
      d="M43.074 47.691c-2.813 1.772-6.356 2.725-10.365 2.725a18.436 18.436 0 0 1-10.867-3.544 18.367 18.367 0 0 1-6.64-9.086l-10.501 8.02a31.046 31.046 0 0 0 4.409 6.631c5.71 6.58 14.144 10.729 23.599 10.729 2.86 0 5.671-.382 8.355-1.126 4.462-1.238 8.574-3.479 11.979-6.641l-9.969-7.708z"
    />
    <path
      fill="#40A557"
      d="M4.702 45.806a31.046 31.046 0 0 0 4.409 6.631c5.71 6.58 14.144 10.729 23.599 10.729 2.86 0 5.671-.382 8.355-1.126 4.462-1.238 8.574-3.479 11.979-6.641l-9.97-7.707c-2.813 1.772-6.356 2.725-10.365 2.725a18.436 18.436 0 0 1-10.867-3.544"
    />
    <path
      fill="#0FAEF4"
      d="M61.791 26H33v12h16.449c-.837 4-3.115 7.636-6.375 9.691l9.97 7.707c2.734-2.538 5.005-5.723 6.639-9.407 1.792-4.036 2.817-8.87 2.817-14.182 0-1.84-.283-3.809-.709-5.809z"
    />
    <path
      fill="#4087ED"
      d="M53.044 55.398c2.734-2.538 5.025-5.759 6.659-9.443 1.792-4.036 2.807-8.852 2.807-14.163 0-1.841-.293-3.792-.719-5.792H60m-27 5v7h16"
    />
  </symbol>

  <symbol id="icon-moon" viewBox="0 0 24 24">
    <path
      fill-rule="evenodd"
      clip-rule="evenodd"
      d="M17.715 15.15A6.5 6.5 0 0 1 9 6.035C6.106 6.922 4 9.645 4 12.867c0 3.94 3.153 7.136 7.042 7.136 3.101 0 5.734-2.032 6.673-4.853Z"
      fill="#38bdf833"
    ></path>
    <path
      d="m17.715 15.15.95.316a1 1 0 0 0-1.445-1.185l.495.869ZM9 6.035l.846.534a1 1 0 0 0-1.14-1.49L9 6.035Zm8.221 8.246a5.47 5.47 0 0 1-2.72.718v2a7.47 7.47 0 0 0 3.71-.98l-.99-1.738Zm-2.72.718A5.5 5.5 0 0 1 9 9.5H7a7.5 7.5 0 0 0 7.5 7.5v-2ZM9 9.5c0-1.079.31-2.082.845-2.93L8.153 5.5A7.47 7.47 0 0 0 7 9.5h2Zm-4 3.368C5 10.089 6.815 7.75 9.292 6.99L8.706 5.08C5.397 6.094 3 9.201 3 12.867h2Zm6.042 6.136C7.718 19.003 5 16.268 5 12.867H3c0 4.48 3.588 8.136 8.042 8.136v-2Zm5.725-4.17c-.81 2.433-3.074 4.17-5.725 4.17v2c3.552 0 6.553-2.327 7.622-5.537l-1.897-.632Z"
      fill="#0ea5e9"
    ></path>
    <path
      fill-rule="evenodd"
      clip-rule="evenodd"
      d="M17 3a1 1 0 0 1 1 1 2 2 0 0 0 2 2 1 1 0 1 1 0 2 2 2 0 0 0-2 2 1 1 0 1 1-2 0 2 2 0 0 0-2-2 1 1 0 1 1 0-2 2 2 0 0 0 2-2 1 1 0 0 1 1-1Z"
      fill="#0ea5e9"
    ></path>
  </symbol>

  <symbol id="icon-sun" viewBox="0 0 24 24" stroke-width="2" stroke-linecap="round" stroke-linejoin="round">
    <path d="M15 12a3 3 0 1 1-6 0 3 3 0 0 1 6 0Z" fill="#38bdf833" stroke="#0ea5e9"></path>
    <path
      d="M12 4v1M17.66 6.344l-.828.828M20.005 12.004h-1M17.66 17.664l-.828-.828M12 20.01V19M6.34 17.664l.835-.836M3.995 12.004h1.01M6 6l.835.836"
      stroke="#0ea5e9"
    ></path>
  </symbol>

  <symbol id="icon-circle-plus" viewBox="0 0 24 24" stroke-width="1.5" stroke="currentColor">
    <path
      stroke-linecap="round"
      stroke-linejoin="round"
      d="M12 9v6m3-3H9m12 0a9 9 0 1 1-18 0 9 9 0 0 1 18 0Z"
    />
  </symbol>

  <symbol id="icon-close" viewBox="0 0 24 24" stroke-width="1.5" stroke="currentColor">
    <path stroke-linecap="round" stroke-linejoin="round" d="M6 18 18 6M6 6l12 12" />
  </symbol>

  <symbol id="icon-pencil" viewBox="0 0 20 20" fill="currentColor" aria-hidden="true">
    <path
      d="M2.695 14.763l-1.262 3.154a.5.5 0 00.65.65l3.155-1.262a4 4 0 001.343-.885L17.5 5.5a2.121 2.121 0 00-3-3L3.58 13.42a4 4 0 00-.885 1.343z"
    ></path>
  </symbol>

  <symbol id="icon-litter" fill="none" viewBox="0 0 24 24" stroke-width="1.5" stroke="currentColor">
    <path
      stroke-linecap="round"
      stroke-linejoin="round"
      d="M14.74 9l-.346 9m-4.788 0L9.26 9m9.968-3.21c.342.052.682.107 1.022.166m-1.022-.165L18.16 19.673a2.25 2.25 0 01-2.244 2.077H8.084a2.25 2.25 0 01-2.244-2.077L4.772 5.79m14.456 0a48.108 48.108 0 00-3.478-.397m-12 .562c.34-.059.68-.114 1.022-.165m0 0a48.11 48.11 0 013.478-.397m7.5 0v-.916c0-1.18-.91-2.164-2.09-2.201a51.964 51.964 0 00-3.32 0c-1.18.037-2.09 1.022-2.09 2.201v.916m7.5 0a48.667 48.667 0 00-7.5 0"
    ></path>
  </symbol>

  <symbol id="icon-plus" viewBox="0 0 24 24" stroke-width="1.5" stroke="currentColor">
    <path stroke-linecap="round" stroke-linejoin="round" d="M12 4.5v15m7.5-7.5h-15"></path>
  </symbol>

  <symbol id="icon-clock" fill="none" viewBox="0 0 24 24" stroke-width="1.5" stroke="currentColor">
    <path
      stroke-linecap="round"
      stroke-linejoin="round"
      d="M12 6v6h4.5m4.5 0a9 9 0 1 1-18 0 9 9 0 0 1 18 0Z"
    />
  </symbol>

  <symbol id="icon-complete" fill="none" viewBox="0 0 24 24" stroke-width="1.5" stroke="currentColor">
    <path
      stroke-linecap="round"
      stroke-linejoin="round"
      d="M9 12.75 11.25 15 15 9.75M21 12c0 1.268-.63 2.39-1.593 3.068a3.745 3.745 0 0 1-1.043 3.296 3.745 3.745 0 0 1-3.296 1.043A3.745 3.745 0 0 1 12 21c-1.268 0-2.39-.63-3.068-1.593a3.746 3.746 0 0 1-3.296-1.043 3.745 3.745 0 0 1-1.043-3.296A3.745 3.745 0 0 1 3 12c0-1.268.63-2.39 1.593-3.068a3.745 3.745 0 0 1 1.043-3.296 3.746 3.746 0 0 1 3.296-1.043A3.746 3.746 0 0 1 12 3c1.268 0 2.39.63 3.068 1.593a3.746 3.746 0 0 1 3.296 1.043 3.746 3.746 0 0 1 1.043 3.296A3.745 3.745 0 0 1 21 12Z"
    />
  </symbol>

  <symbol id="icon-filter" fill="none" viewBox="0 0 24 24" stroke-width="1.5" stroke="currentColor">
    <path
      stroke-linecap="round"
      stroke-linejoin="round"
      d="M12 3c2.755 0 5.455.232 8.083.678.533.09.917.556.917 1.096v1.044a2.25 2.25 0 0 1-.659 1.591l-5.432 5.432a2.25 2.25 0 0 0-.659 1.591v2.927a2.25 2.25 0 0 1-1.244 2.013L9.75 21v-6.568a2.25 2.25 0 0 0-.659-1.591L3.659 7.409A2.25 2.25 0 0 1 3 5.818V4.774c0-.54.384-1.006.917-1.096A48.32 48.32 0 0 1 12 3Z"
    />
  </symbol>
</svg>
